<svg xmlns="http://www.w3.org/2000/svg" xmlns:xlink="http://www.w3.org/1999/xlink" width="490" zoomAndPan="magnify" viewBox="0 0 367.5 374.999991" height="500" preserveAspectRatio="xMidYMid meet" version="1.0"><defs><clipPath id="eb036a7124"><path d="M 151 0.253906 L 206 0.253906 L 206 98 L 151 98 Z M 151 0.253906 " clip-rule="nonzero"/></clipPath><clipPath id="7026ea4590"><path d="M 1.636719 110 L 196 110 L 196 330 L 1.636719 330 Z M 1.636719 110 " clip-rule="nonzero"/></clipPath><clipPath id="754c02796f"><path d="M 1.636719 234 L 28 234 L 28 315 L 1.636719 315 Z M 1.636719 234 " clip-rule="nonzero"/></clipPath><clipPath id="f44c7e4996"><path d="M 128.191406 114.699219 L 365.441406 114.699219 L 365.441406 374.71875 L 128.191406 374.71875 Z M 128.191406 114.699219 " clip-rule="nonzero"/></clipPath><clipPath id="84954bd276"><path d="M 331 265 L 365.644531 265 L 365.644531 363 L 331 363 Z M 331 265 " clip-rule="nonzero"/></clipPath><clipPath id="f4f87be080"><path d="M 220 318.160156 L 331.808594 318.160156 L 331.808594 374.71875 L 220 374.71875 Z M 220 318.160156 " clip-rule="nonzero"/></clipPath><clipPath id="bddf606a68"><path d="M 163 265.476562 L 247 265.476562 L 247 374.71875 L 163 374.71875 Z M 163 265.476562 " clip-rule="nonzero"/></clipPath></defs><path fill="#d9d9d3" d="M 213.011719 87.117188 L 176.003906 4.601562 L 159.378906 48.828125 L 101.890625 159.257812 L 75.847656 216.183594 L 75.847656 235.59375 L 101.890625 258.617188 C 108.082031 277.625 163.058594 287.859375 163.058594 287.859375 L 240.710938 247.382812 L 269.539062 216.183594 L 240.710938 141.386719 L 213.011719 87.117188 " fill-opacity="1" fill-rule="evenodd"/><path fill="#b8b7b0" d="M 75.847656 235.59375 L 101.890625 258.617188 L 101.890625 159.257812 L 75.847656 216.183594 L 75.847656 235.59375 " fill-opacity="1" fill-rule="evenodd"/><path fill="#adada7" d="M 101.890625 258.617188 L 143.941406 172.726562 L 101.890625 177.847656 Z M 101.890625 258.617188 " fill-opacity="1" fill-rule="evenodd"/><path fill="#9c9c98" d="M 101.890625 177.847656 L 143.941406 172.726562 L 159.378906 48.828125 L 101.890625 159.257812 L 101.890625 177.847656 " fill-opacity="1" fill-rule="evenodd"/><path fill="#adada7" d="M 159.378906 48.828125 L 143.941406 172.726562 L 182.179688 78.796875 L 176.003906 4.601562 L 159.378906 48.828125 " fill-opacity="1" fill-rule="evenodd"/><path fill="#bab9b4" d="M 143.941406 172.726562 L 193.648438 212.933594 L 182.179688 78.796875 Z M 143.941406 172.726562 " fill-opacity="1" fill-rule="evenodd"/><path fill="#afafa9" d="M 163.058594 287.859375 L 193.648438 212.933594 L 101.890625 258.617188 C 108.082031 277.625 163.058594 287.859375 163.058594 287.859375 " fill-opacity="1" fill-rule="evenodd"/><path fill="#afafa9" d="M 101.890625 258.617188 L 193.648438 212.933594 L 143.941406 172.726562 Z M 101.890625 258.617188 " fill-opacity="1" fill-rule="evenodd"/><path fill="#d0d0ca" d="M 180.820312 62.5 L 213.011719 87.117188 L 176.003906 4.601562 Z M 180.820312 62.5 " fill-opacity="1" fill-rule="evenodd"/><path fill="#d0d0ca" d="M 211.886719 159.257812 L 240.710938 141.386719 L 213.011719 87.117188 Z M 211.886719 159.257812 " fill-opacity="1" fill-rule="evenodd"/><path fill="#c6c6c0" d="M 193.648438 212.933594 L 211.886719 159.257812 L 213.011719 87.117188 L 180.820312 62.5 L 193.648438 212.933594 " fill-opacity="1" fill-rule="evenodd"/><path fill="#e1e1dc" d="M 240.710938 247.382812 L 269.539062 216.183594 L 240.710938 141.386719 Z M 240.710938 247.382812 " fill-opacity="1" fill-rule="evenodd"/><path fill="#d6d7d1" d="M 240.710938 247.382812 L 240.710938 141.386719 L 211.886719 159.257812 Z M 240.710938 247.382812 " fill-opacity="1" fill-rule="evenodd"/><path fill="#dbdbd6" d="M 163.058594 287.859375 L 240.710938 247.382812 L 211.886719 159.257812 Z M 163.058594 287.859375 " fill-opacity="1" fill-rule="evenodd"/><g clip-path="url(#eb036a7124)"><path fill="#e6f7fa" d="M 158.082031 48.066406 L 151.398438 64.15625 C 154.457031 72.75 153.261719 97.917969 153.261719 97.917969 L 176.003906 92.277344 L 182.511719 74 C 182.511719 74 202.0625 82.121094 204.136719 85.066406 C 204.796875 79.917969 205.054688 74.730469 205.121094 69.53125 L 176.003906 0.257812 L 158.082031 48.066406 " fill-opacity="1" fill-rule="evenodd"/></g><g clip-path="url(#7026ea4590)"><path fill="#d9d9d3" d="M 139.007812 176.457031 L 101.996094 110.105469 L 85.375 145.667969 L 27.890625 234.472656 L 1.839844 280.246094 L 1.839844 295.859375 L 27.890625 314.375 C 48.910156 326.890625 98.6875 329.566406 98.6875 329.566406 L 166.707031 305.339844 L 195.535156 280.246094 L 166.707031 220.097656 L 139.007812 176.457031 " fill-opacity="1" fill-rule="evenodd"/></g><g clip-path="url(#754c02796f)"><path fill="#b8b7b0" d="M 1.839844 295.859375 L 27.890625 314.375 L 27.890625 234.472656 L 1.839844 280.246094 L 1.839844 295.859375 " fill-opacity="1" fill-rule="evenodd"/></g><path fill="#bdbdb6" d="M 27.890625 314.375 L 69.933594 245.308594 L 27.890625 249.417969 Z M 27.890625 314.375 " fill-opacity="1" fill-rule="evenodd"/><path fill="#c4c4bd" d="M 27.890625 249.417969 L 69.933594 245.308594 L 85.375 145.667969 L 27.890625 234.472656 L 27.890625 249.417969 " fill-opacity="1" fill-rule="evenodd"/><path fill="#d1d1cb" d="M 85.375 145.667969 L 69.933594 245.308594 L 108.171875 169.769531 L 101.996094 110.105469 L 85.375 145.667969 " fill-opacity="1" fill-rule="evenodd"/><path fill="#d6d7d1" d="M 69.933594 245.308594 L 119.644531 277.636719 L 108.171875 169.769531 Z M 69.933594 245.308594 " fill-opacity="1" fill-rule="evenodd"/><path fill="#d6d7d1" d="M 98.6875 329.566406 L 119.644531 277.636719 L 27.890625 314.375 C 41.71875 323.242188 98.6875 329.566406 98.6875 329.566406 " fill-opacity="1" fill-rule="evenodd"/><path fill="#c4c4bd" d="M 27.890625 314.375 L 119.644531 277.636719 L 69.933594 245.308594 Z M 27.890625 314.375 " fill-opacity="1" fill-rule="evenodd"/><path fill="#d6d7d1" d="M 106.816406 156.667969 L 139.003906 176.457031 L 101.996094 110.105469 Z M 106.816406 156.667969 " fill-opacity="1" fill-rule="evenodd"/><path fill="#d6d7d1" d="M 137.882812 234.472656 L 166.707031 220.097656 L 139.003906 176.457031 Z M 137.882812 234.472656 " fill-opacity="1" fill-rule="evenodd"/><path fill="#cfcfc9" d="M 119.644531 277.636719 L 137.882812 234.472656 L 139.003906 176.457031 L 106.816406 156.667969 L 119.644531 277.636719 " fill-opacity="1" fill-rule="evenodd"/><path fill="#c7c8c1" d="M 166.707031 305.339844 L 195.535156 280.246094 L 166.707031 220.097656 Z M 166.707031 305.339844 " fill-opacity="1" fill-rule="evenodd"/><path fill="#d6d7d1" d="M 166.707031 305.339844 L 166.707031 220.097656 L 137.882812 234.472656 Z M 166.707031 305.339844 " fill-opacity="1" fill-rule="evenodd"/><path fill="#d5d4cf" d="M 98.6875 329.566406 L 166.707031 305.339844 L 137.882812 234.472656 Z M 98.6875 329.566406 " fill-opacity="1" fill-rule="evenodd"/><path fill="#e6f7fa" d="M 84.171875 144.753906 L 77.394531 157.992188 C 80.453125 164.90625 83.742188 171.703125 88.386719 177.660156 C 90.652344 172.089844 91.960938 166.222656 94.222656 160.628906 C 94.777344 159.242188 96.570312 158.820312 97.445312 160.210938 C 98.773438 162.304688 122.808594 166.441406 130.128906 174.8125 C 130.792969 170.671875 131.050781 166.5 131.117188 162.316406 L 101.996094 110.105469 L 84.171875 144.753906 " fill-opacity="1" fill-rule="evenodd"/><g clip-path="url(#f44c7e4996)"><path fill="#d9d9d3" d="M 261.949219 158.101562 L 241.769531 114.933594 L 196.84375 195.476562 L 163.214844 248.453125 L 128.226562 321.46875 L 163.214844 351.925781 L 246.617188 374.519531 C 246.617188 374.519531 306.210938 371.125 331.726562 362.894531 L 360.351562 340.269531 L 365.441406 322.609375 L 331.726562 265.898438 L 261.949219 158.101562 " fill-opacity="1" fill-rule="evenodd"/></g><g clip-path="url(#84954bd276)"><path fill="#dfdfda" d="M 331.726562 362.894531 L 360.351562 340.269531 L 365.441406 322.609375 L 331.726562 265.898438 L 331.726562 362.894531 " fill-opacity="1" fill-rule="evenodd"/></g><path fill="#dbdbd6" d="M 331.726562 362.894531 L 331.726562 284.042969 L 280.6875 279.050781 Z M 331.726562 362.894531 " fill-opacity="1" fill-rule="evenodd"/><path fill="#dfdfda" d="M 280.6875 279.050781 L 331.726562 284.042969 L 331.726562 265.898438 L 261.949219 158.101562 L 280.6875 279.050781 " fill-opacity="1" fill-rule="evenodd"/><path fill="#e6e6e2" d="M 241.769531 114.933594 L 234.269531 187.359375 L 280.6875 279.050781 L 261.949219 158.101562 L 241.769531 114.933594 " fill-opacity="1" fill-rule="evenodd"/><path fill="#e1e1dc" d="M 220.34375 318.296875 L 280.6875 279.050781 L 234.269531 187.359375 Z M 220.34375 318.296875 " fill-opacity="1" fill-rule="evenodd"/><g clip-path="url(#f4f87be080)"><path fill="#d6d7d1" d="M 246.617188 374.519531 C 246.617188 374.519531 307.597656 377.199219 331.726562 362.894531 L 220.34375 318.296875 L 246.617188 374.519531 " fill-opacity="1" fill-rule="evenodd"/></g><path fill="#e6e6e2" d="M 220.34375 318.296875 L 331.726562 362.894531 L 280.6875 279.050781 Z M 220.34375 318.296875 " fill-opacity="1" fill-rule="evenodd"/><path fill="#c4c4bd" d="M 235.917969 171.449219 L 241.769531 114.933594 L 196.847656 195.476562 Z M 235.917969 171.449219 " fill-opacity="1" fill-rule="evenodd"/><path fill="#c4c4bd" d="M 163.214844 248.453125 L 198.210938 265.898438 L 196.847656 195.476562 Z M 163.214844 248.453125 " fill-opacity="1" fill-rule="evenodd"/><path fill="#c4c4bd" d="M 198.210938 265.898438 L 220.34375 318.296875 L 235.917969 171.449219 L 196.847656 195.476562 L 198.210938 265.898438 " fill-opacity="1" fill-rule="evenodd"/><path fill="#b8b7b0" d="M 163.214844 351.925781 L 163.214844 248.453125 L 126.035156 320.210938 Z M 163.214844 351.925781 " fill-opacity="1" fill-rule="evenodd"/><path fill="#bdbdb6" d="M 163.214844 351.925781 L 198.210938 265.898438 L 163.214844 248.453125 Z M 163.214844 351.925781 " fill-opacity="1" fill-rule="evenodd"/><g clip-path="url(#bddf606a68)"><path fill="#d9d9d3" d="M 163.214844 351.925781 L 246.617188 374.519531 L 198.210938 265.898438 Z M 163.214844 351.925781 " fill-opacity="1" fill-rule="evenodd"/></g><path fill="#dff4f8" d="M 241.769531 111.574219 L 206.417969 178.3125 C 206.5 183.390625 206.816406 188.453125 207.617188 193.476562 C 216.503906 183.324219 225.449219 173.496094 236.636719 165.710938 C 237.582031 165.054688 242.183594 177.636719 242.582031 183.457031 C 244.136719 180.882812 245.683594 178.296875 247.292969 175.753906 C 248.355469 174.070312 250.53125 174.582031 251.207031 176.265625 C 253.953125 183.054688 255.539062 190.171875 258.292969 196.9375 C 263.925781 189.707031 267.925781 181.453125 271.632812 173.066406 L 261.949219 155.933594 L 241.769531 111.574219 " fill-opacity="1" fill-rule="evenodd"/></svg>